<?xml version="1.0" encoding="utf-8"?>
<!-- Generator: Adobe Illustrator 16.0.0, SVG Export Plug-In . SVG Version: 6.00 Build 0)  -->
<!DOCTYPE svg PUBLIC "-//W3C//DTD SVG 1.1//EN" "http://www.w3.org/Graphics/SVG/1.1/DTD/svg11.dtd">
<svg version="1.1" id="Calque_1" xmlns="http://www.w3.org/2000/svg" xmlns:xlink="http://www.w3.org/1999/xlink" x="0px" y="0px"
	 width="292.85px" height="136.994px" viewBox="0 0 292.85 136.994" enable-background="new 0 0 292.85 136.994"
	 xml:space="preserve">
<g>
	<g>
		<g>
			<path fill="#00A1E4" d="M32.525,109.373c-2.591,0-4.556-1.769-4.556-4.396v-8.434h1.93v8.344c0,1.697,1.036,2.752,2.626,2.752
				s2.645-1.055,2.645-2.752v-8.344h1.93v8.434C37.1,107.604,35.116,109.373,32.525,109.373z"/>
			<path fill="#00A1E4" d="M48.171,109.266l-5.879-8.952v8.952h-1.93V96.544h1.769l5.878,8.934v-8.934h1.93v12.722H48.171z"/>
			<path fill="#00A1E4" d="M53.332,109.266V96.544h1.93v12.722H53.332z"/>
			<path fill="#00A1E4" d="M63.173,109.266h-1.501l-4.181-12.722h2.001l2.931,9.256l2.93-9.256h2.037L63.173,109.266z"/>
			<path fill="#00A1E4" d="M69.636,109.266V96.544h8.13v1.732h-6.2v3.717h5.289v1.715h-5.289v3.824h6.2v1.733H69.636z"/>
			<path fill="#00A1E4" d="M87.477,109.266l-2.681-5.36h-2.412v5.36h-1.93V96.544h4.932c2.412,0,3.949,1.555,3.949,3.717
				c0,1.822-1.108,2.983-2.537,3.377l2.93,5.628H87.477z M85.243,98.276h-2.859v3.984h2.859c1.287,0,2.162-0.732,2.162-1.982
				C87.405,99.027,86.529,98.276,85.243,98.276z"/>
			<path fill="#00A1E4" d="M95.929,109.373c-1.912,0-3.288-0.446-4.502-1.68l1.287-1.269c0.929,0.929,1.947,1.215,3.252,1.215
				c1.662,0,2.626-0.715,2.626-1.947c0-0.555-0.161-1.02-0.5-1.322c-0.321-0.305-0.643-0.43-1.394-0.536l-1.501-0.215
				c-1.036-0.143-1.858-0.5-2.412-1.019c-0.625-0.59-0.929-1.394-0.929-2.43c0-2.216,1.608-3.734,4.252-3.734
				c1.68,0,2.859,0.429,3.949,1.447l-1.233,1.215c-0.787-0.75-1.698-0.982-2.77-0.982c-1.501,0-2.323,0.857-2.323,1.982
				c0,0.465,0.143,0.876,0.482,1.18c0.322,0.286,0.84,0.5,1.43,0.59l1.447,0.215c1.179,0.178,1.84,0.465,2.376,0.947
				c0.697,0.607,1.036,1.518,1.036,2.607C100.503,107.979,98.591,109.373,95.929,109.373z"/>
			<path fill="#00A1E4" d="M103.165,109.266V96.544h1.93v12.722H103.165z"/>
			<path fill="#00A1E4" d="M112.978,98.276v10.989h-1.93V98.276h-3.502v-1.732h8.934v1.732H112.978z"/>
			<path fill="#00A1E4" d="M118.948,109.266V96.544h8.13v1.732h-6.2v3.717h5.289v1.715h-5.289v3.824h6.2v1.733H118.948z
				 M123.29,95.311h-1.376l1.34-2.895h2.02L123.29,95.311z"/>
			<path fill="#00A1E4" d="M142.259,108.068c-0.804,0.804-1.965,1.197-3.287,1.197h-4.467V96.544h4.467
				c1.322,0,2.483,0.393,3.287,1.197c1.376,1.375,1.287,3.233,1.287,5.074C143.546,104.655,143.635,106.692,142.259,108.068z
				 M140.937,99.134c-0.535-0.589-1.25-0.857-2.161-0.857h-2.341v9.256h2.341c0.911,0,1.626-0.268,2.161-0.857
				c0.661-0.732,0.68-2.108,0.68-3.859C141.616,101.063,141.598,99.867,140.937,99.134z"/>
			<path fill="#00A1E4" d="M146.523,109.266V96.544h8.13v1.732h-6.2v3.717h5.289v1.715h-5.289v3.824h6.2v1.733H146.523z"/>
			<path fill="#00A1E4" d="M169.103,109.266l-2.68-5.36h-2.412v5.36h-1.93V96.544h4.932c2.412,0,3.948,1.555,3.948,3.717
				c0,1.822-1.107,2.983-2.537,3.377l2.931,5.628H169.103z M166.869,98.276h-2.858v3.984h2.858c1.287,0,2.162-0.732,2.162-1.982
				C169.031,99.027,168.156,98.276,166.869,98.276z"/>
			<path fill="#00A1E4" d="M173.944,109.266V96.544h8.13v1.732h-6.2v3.717h5.289v1.715h-5.289v3.824h6.2v1.733H173.944z"/>
			<path fill="#00A1E4" d="M188.799,109.373c-1.322,0-2.466-0.482-3.342-1.358c-1.25-1.25-1.232-2.662-1.232-5.109
				c0-2.449-0.018-3.86,1.232-5.111c0.876-0.875,2.02-1.357,3.342-1.357c2.341,0,4.092,1.375,4.538,3.913h-1.965
				c-0.304-1.286-1.162-2.181-2.573-2.181c-0.751,0-1.43,0.287-1.876,0.77c-0.626,0.678-0.769,1.411-0.769,3.967
				c0,2.555,0.143,3.287,0.769,3.966c0.446,0.482,1.125,0.769,1.876,0.769c1.411,0,2.287-0.894,2.591-2.18h1.947
				C192.908,107.997,191.104,109.373,188.799,109.373z"/>
			<path fill="#00A1E4" d="M203.093,109.266v-5.558h-5.163v5.558H196V96.544h1.93v5.432h5.163v-5.432h1.931v12.722H203.093z"/>
			<path fill="#00A1E4" d="M208.417,109.266V96.544h8.13v1.732h-6.2v3.717h5.289v1.715h-5.289v3.824h6.2v1.733H208.417z"/>
			<path fill="#00A1E4" d="M226.257,109.266l-2.68-5.36h-2.412v5.36h-1.93V96.544h4.932c2.412,0,3.948,1.555,3.948,3.717
				c0,1.822-1.107,2.983-2.537,3.377l2.931,5.628H226.257z M224.023,98.276h-2.858v3.984h2.858c1.287,0,2.162-0.732,2.162-1.982
				C226.186,99.027,225.311,98.276,224.023,98.276z"/>
			<path fill="#00A1E4" d="M235.227,109.373c-1.322,0-2.466-0.482-3.342-1.358c-1.25-1.25-1.232-2.662-1.232-5.109
				c0-2.449-0.018-3.86,1.232-5.111c0.876-0.875,2.02-1.357,3.342-1.357c2.341,0,4.092,1.375,4.538,3.913H237.8
				c-0.304-1.286-1.162-2.181-2.573-2.181c-0.751,0-1.43,0.287-1.876,0.77c-0.626,0.678-0.769,1.411-0.769,3.967
				c0,2.555,0.143,3.287,0.769,3.966c0.446,0.482,1.125,0.769,1.876,0.769c1.411,0,2.287-0.894,2.591-2.18h1.947
				C239.336,107.997,237.531,109.373,235.227,109.373z"/>
			<path fill="#00A1E4" d="M249.52,109.266v-5.558h-5.163v5.558h-1.93V96.544h1.93v5.432h5.163v-5.432h1.931v12.722H249.52z"/>
			<path fill="#00A1E4" d="M254.844,109.266V96.544h8.13v1.732h-6.2v3.717h5.289v1.715h-5.289v3.824h6.2v1.733H254.844z"/>
		</g>
	</g>
	<rect x="27.729" y="27.683" fill="#00529C" width="9.281" height="55.695"/>
	<path fill="#00529C" d="M105.094,71.66l-33.496-35.35c-7.789-8.349-8.824-8.628-15.863-8.628h-3.266v55.732h9.284V39.467
		l33.481,35.29c7.805,8.375,8.834,8.658,15.885,8.658h3.257V27.683h-9.282V71.66z"/>
	<path fill="#00529C" d="M219.462,27.729h29.359c6.255,0,6.96,0.469,12.426,8.339l0.614,0.895h-42.054
		c-3.841,0-6.955,3.18-6.955,7.018s3.114,6.905,6.955,6.905h28.302c9.66,0,17.012,7.37,17.012,16.339
		c0,8.924-7.352,16.153-17.012,16.153h-31.973c-6.201,0-7.016-0.509-12.369-8.392l-0.614-0.894h45.162
		c3.922,0,7.115-2.981,7.115-6.868c0-3.903-3.193-7.053-7.115-7.053h-28.854c-8.973,0-16.251-7.215-16.251-16.191
		C203.211,35.006,210.489,27.729,219.462,27.729"/>
	<path fill="#00529C" d="M191.608,83.378h-5.196c-5.59,0-6.028,0.004-10.192-6.053l-9.984-14.43H139.05v20.483h-9.285V27.683h44.31
		c9.727,0,17.604,7.881,17.604,17.605c0,8.624-6.191,15.798-14.381,17.308L191.608,83.378z M173.783,53.611
		c4.57,0,8.277-3.75,8.277-8.323c0-4.572-3.707-8.325-8.277-8.325H139.05v16.648H173.783z"/>
</g>
</svg>
